<svg xmlns="http://www.w3.org/2000/svg" fill="none" preserveAspectRatio="none" viewBox="0 0 507 326">
    <g clip-path="url(#a)">
        <mask id="b" width="507" height="326" x="0" y="0" maskUnits="userSpaceOnUse" style="mask-type:luminance">
            <path fill="#fff" d="M0 0h507v326H0V0Z" />
        </mask>
        <g mask="url(#b)">
            <mask id="c" width="508" height="326" x="-1" y="0" maskUnits="userSpaceOnUse" style="mask-type:luminance">
                <path fill="#fff"
                    d="M2.12 2.08 17.08 0l35.64 2.66 66.65-.93h47.8l16.79 1.62 2.85-1.44L221.66.35l32.6 1.73s35.63-.23 71.15-.23c35.51 0 116.76 1.85 116.76 1.85l28.22-1.04 1.7-.47 25.79.12 6.8-.8 1.71.57-.12 5.9v12.24l-.97 59.26-3.04 1.85 2.92 3.92 1.33 84.45-1.33 6 .85 23.23.85 2.65.12 87.34-1.1 23.68 1.1 3.23-.6 7.63-4.27 1.27-33.8-2.54-24.46 3.35-51.2-2.89-4.38 3.35-107.88-2.54-15.33 1.73-26.64-3.46-15.69 2.08-46.58.05-42.08 1.8-5.48-1.4L113.9 326l-46.22-1.96-1.34.46-47.56-1.5-16.66.46-.85-4.04 2.68-4.51-3.53-18.83s1.46-24.6 1.46-34.66c0-10.05-1.22-13.97-1.83-27.26-.6-13.28 4.14-58.34 4.14-58.34L.9 161.04l1.59-2.2L2 87.56l1.95-2.3L2 64.33V23.1l.6-15.6-.48-5.42Z" />
            </mask>
            <g mask="url(#c)">
                <path fill="url(#d)" d="M-41.38-22.54h558.27v370.82H-41.38V-22.54Z" opacity=".02" />
                <path fill="url(#e)" fill-opacity=".08"
                    d="m362.1 265.42-67.55-2.13-17.11-14.92-33.17 13.85-88.19 38.72-59.68 16.3-25.13 16.73 178.41 2.83 75.42-6.4 83.44 3.2 94.8 3.06 22.85-29.91 9.13-58.38-15.5-212.61-16.49 25.57-17.91 113.28-21.37 53.9v34.78l-30.64-10.13-24.87 9.06-18.33 8.53-28.1-5.33h-.01Z" />
                <path fill="url(#f)" fill-opacity=".15"
                    d="m40.43 218.5 1.68-54.4 11.78-13.78-10.94-26.7 10.1-103.6L20.47-6l-34.17-9.7-2.23 143.66 5.04 60.73-2.52 67.19-2.42 76.33 28.2 2.95 6.19-6.75 25.23-16.16.84-10.27-5.88-17.85 12.61-30.36-15.14-12.65 4.2-22.63.01.01Z" />
                <path fill="url(#g)" fill-opacity=".2"
                    d="m168.6 100.99 78.6 3.28 19.9 22.95 38.6-21.31 149.7 19.67 37.58-63.5L507-4.5 299.4-8.86 211.67.97l-97.1-4.92-110.3-4.7L0 46.31l9.75 12.04 23.36 49.19 14.83 1.64 25.8-11.48 43.87 24.6 18.28-29.53 32.7 8.2.01.02Z" />
                <path fill="url(#h)" fill-opacity=".2"
                    d="m429.38 69.66-3.56 67.07-22.17 16.73 20.29 33.19-19.68 127.57 60.83 32.82 63.93 12.73 5.26-177.17-9-75.03 5.23-82.83 5.1-94.1-52.82-4.28-11.62 8.18-47.4 19.38-1.65 12.64 10.9 22.15-23.87 37.18 28.28 15.94-8.05 27.83Z"
                    opacity=".5" />
                <path fill="url(#i)" fill-opacity=".15"
                    d="m65.85 283.44-13.94 21.47c1.02 14.72 3.12 45.26 3.32 49.66.2 4.4 57.23-14.82 85.72-24.98l26.62-44.82-12.08-7.06 3.36-20.38-12.28-9.09-45.45 36.2-35.27-1Z" />
                <path fill="#000" fill-opacity=".04"
                    d="m430.78 107.4 16.84-93.64c18.55 38.43 56.51 116.61 59.94 121.87 3.42 5.26-78.24 69.55-119.5 101.04l5.48-51.68 17.74-35.47 19.5-42.11v-.01Zm-202-49.88-76.5 16.15-21.13 10.26-55.1-10.28 40.1-9.1c46.4-11.07 140.82-33.6 147.26-35.1 8.06-1.87 176.44-42.63 179.3-43.3 2.28-.53-9.08 10.24-15.05 15.7-8.04 4.87-25.12 15.02-29.13 16.54-5 1.9-22.21 10.82-25.62 12.09-3.4 1.27-31.29 8.99-34.17 9.45-2.89.45-40.88 8.06-44.32 9.12-2.74.85-12.34 5.22-16.8 7.3l-19.04 3.01-14.64 14.86-15.16-16.7Z" />
                <path fill="#0D0F0F" fill-opacity=".11"
                    d="m499.44 92.08 7.17-43.5c5.53 34.23 16.58 103.18 16.58 105.13 0 2.45 1.45 173.5 0 177.57-1.16 3.26-12.7 14.8-18.32 20.17-129.87-.27-394.36-.65-413.42 0-19.07.66-37.11-17.72-43.75-27 8.4-2.68 26-8.04 29.19-8.04h47.51c1.45 0 38.68 3.16 40.92 3.16 2.25 0 57.58-3.16 59.03-3.16h54.69l81.55 3.16 43.24-3.16 33.82 3.16 22.02-3.16h42.08v-79.77l-2.31-29.03 2.31-41.88-2.31-73.65Z" />
                <path fill="url(#j)"
                    d="m4.2 32.8.36-23.12.3-3.97-2.69-3.67-3.9 1.32-2.47 22.82 3.19 46.05-2.32 13.65L.58 207.93l5-30.77-.87-18.85v-41.15l2.24-34.54L5.58 59.3 4.2 32.8Z" />
                <path fill="#070707" fill-opacity=".17"
                    d="M145.67 8.76h-16.73l-18.27-4.75-35.2 4.75-37.52-4.75-21.5 2.4-6.96-2.4-1.74 9.13-4.27 3.06 2.17 14.57-8.7 34.63L2.18-5.7l35.78-3.06 416.03 3.73L416.9 4l-18.25 4.75C387.61 7.17 365.16 4 363.65 4c-1.5 0-21.29 3.17-31 4.75h-16.73L294.69 4h-32.23l-15.21 4.75h-42.02c-1.5 0-16.61-3.17-23.98-4.75l-7.6 4.75h-27.97l-.01.01Z" />
                <path fill="#000" fill-opacity=".16"
                    d="M4.56 257.95V233.9l-4.98-77.14c-1.38-.44-4.39-.51-5.37 2.66-1.24 3.98-5.94 80.8-6.96 92.2-.8 9.13 4.3 58.27 6.96 81.7h243.07l-12.39-10.08h-39.47c-1.81 0-23.83-2.24-27.74-1.94-3.13.25-16.9 4.86-23.4 7.13l-21.15-13.24-35.85 8.05-19.56-8.05c-12.82 1.53-40.05 4.42-46.42 3.77-6.38-.65-4.83-9.24-3.26-13.45-.82-4.2-2.46-12.92-2.46-14.06 0-1.14 2.85-11.75 4.27-16.9l-5.29-16.61v.01Z" />
                <path fill="#000" fill-opacity=".08"
                    d="m12.9 220.87-3.56-58.28L-2.1 51.14-4.2 347.4l519.31-16.6-38.9-14.57-26.07-7.44-15.35 16.5-47.8-16.5-23.54 7.44c-12.5-1.16-38.09-3.46-40.35-3.46-2.26 0-22.13-2.65-31.8-3.98-8.78 0-26.72.8-28.17 3.98-1.45 3.18-29.38 6.35-43.16 7.54l-54.98-11.52-57.87 7.44-52.44-14.98c-5 2.18-15.64 6.73-18.25 7.54-2.6.82-8.9-4.68-11.73-7.54l-6.1-13.15-5.72-12.02 2.54-21.6-6.09-11.5 3.55-22.11h.02Z" />
                <path fill="#000" fill-opacity=".14"
                    d="m419.84 15.3-92.9-6.84c30.54-7.16 91.88-21.16 92.9-19.85 1.02 1.3 71.86-.55 107.15-1.63l-16.8 201.5-8.4-18.88c-3.05-13.24-9.56-42.06-11.2-51.44-1.62-9.37.69-27.34 2.04-35.15L485 65.76l-10.18-19.54 11.96-21.15-23.92-3.58c-8.57 3.36-26.02 10.09-27.24 10.09-1.22 0-11.03-10.85-15.78-16.28Z" />
            </g>
        </g>
    </g>
    <defs>
        <linearGradient id="d" x1="202.55" x2="229.53" y1="-6.69" y2="341.55" gradientUnits="userSpaceOnUse">
            <stop stop-color="#011411" />
            <stop offset=".47" stop-color="#011211" />
            <stop offset="1" stop-color="#06191C" />
        </linearGradient>
        <linearGradient id="f" x1="-15.93" x2="36.65" y1="159.74" y2="159.74" gradientUnits="userSpaceOnUse">
            <stop stop-color="#1C1E1E" />
            <stop offset="1" stop-color="#0F1A16" stop-opacity="0" />
        </linearGradient>
        <linearGradient id="g" x1="253.5" x2="253.5" y1="-8.86" y2="93.61" gradientUnits="userSpaceOnUse">
            <stop stop-color="#131313" />
            <stop offset="1" stop-color="#03130E" stop-opacity="0" />
        </linearGradient>
        <linearGradient id="h" x1="534.52" x2="436.02" y1="143.41" y2="142.81" gradientUnits="userSpaceOnUse">
            <stop />
            <stop offset="1" stop-color="#0F1110" stop-opacity="0" />
        </linearGradient>
        <linearGradient id="i" x1="153.84" x2="127.36" y1="229.99" y2="352.6" gradientUnits="userSpaceOnUse">
            <stop />
            <stop offset="1" stop-opacity="0" />
        </linearGradient>
        <linearGradient id="j" x1="5.94" x2="-15.57" y1="6.01" y2="205.67" gradientUnits="userSpaceOnUse">
            <stop stop-color="#0F1111" stop-opacity=".26" />
            <stop offset="1" stop-color="#97E9E4" stop-opacity="0" />
        </linearGradient>
        <radialGradient id="e" cx="0" cy="0" r="1"
            gradientTransform="matrix(-464.70154 2.03577 -1.62604 -371.17444 496.5 313.37)"
            gradientUnits="userSpaceOnUse">
            <stop stop-color="#0B0C0C" />
            <stop offset="1" stop-color="#0E0E0E" stop-opacity="0" />
        </radialGradient>
        <clipPath id="a">
            <path fill="#fff" d="M0 0h507v326H0z" />
        </clipPath>
    </defs>
</svg>